<svg xmlns="http://www.w3.org/2000/svg" width="512" height="384" viewBox="0 0 512 384"><g transform="translate(0 0) scale(.25)"><path d="M365.1 21.31c-6.3-.03-12.4.5-16.9 1.4-4.3.86-6.9 2.81-6.8 2.25-5.4 9.07-11.1 24.96-12.3 38.47-.7 6.95-.2 13.21 1.3 17.39 1.5 4.17 3.2 6.1 6.5 7.31.3.1.4.18.5.25 0-.11.1-.28.4-.55 1.1-.97 3.2-4.03 5.3-8.1 4.1-8.15 7.5-19.78 16.1-28.18 9.2-8.93 21.6-12.1 30.4-16.15 4.4-2.02 7.7-4.15 9.1-5.64.4-.5.6-.75.8-1.05-6.2-3.54-19.3-6.95-31.7-7.33v-.02c-.9-.03-1.8-.04-2.7-.05zm-27.7 67.07c-.1.18.1.14 0 0zm72.3-44.28c-3.8 3.39-8.2 5.63-12.6 7.65-10.4 4.81-21.4 8.86-25.3 12.69-1.2 1.19-2.6 3.38-4.1 6.13 3.4 3.18 7.5 6.16 12 8.69 10.1 5.62 20.8 7.85 29.1 7.08 8.4-.63 13.6-3.77 16.2-8.32 2.5-4.55 2.3-10.69-1.6-18.1-2.7-5.4-7.4-11.01-13.7-15.82zm-50.3 43.19c0 .17-.1.33-.2.5-2.4 4.82-5 9.59-9.4 13.51-3.4 2.9-8.6 5-13.8 4.8-7.4 10.2-16 20.9-26.7 32.2 21.9 9.6 38 18.5 57.8 31.9 7.1-27.8 16.3-48.5 25.9-67-7.3-1.4-14.8-4.2-22-8.19-4.2-2.3-8.1-4.9-11.6-7.72zm-102 16.91c-24.1 1.1-35.8 11.4-42.4 23.5-6.6 12-6.6 27-4.9 32 .5 1.8.3 1.3 1 1.4.7.2 3 .2 6.2-1.3 6.4-3.1 15.3-11.3 20.8-23.5l4.1-9 8.5 4.9c7.4 4.2 17.9.6 22.8-5.5.5-5.7-1.1-11.5-4.2-15.7-3.2-4.3-7.3-6.7-11.1-6.8h-.8zm22.4 41.2c-8.3 5.9-19 8.3-29.4 5.7-2.8 4.8-6 9.1-9.4 12.8 65.4 23.4 80.5 30.9 129.6 69.3 1.1 30.4 4 73.9 1 96.9-2.4 18.3 17.7 12 18 .2.4-18.3-3.1-37.9.7-54.7.8 15.7 14.8 13.5 15.1.3l.7-43.6 6.8-6.3c-63.8-48.1-79.5-59.2-133.1-80.6zm-8.3 48.8l-52.8 95.6 9.2 18.5-22.5 5.4-29.5 53.4 10 8.2 21.7-3.7 91.5-165.4c-8.1-4.1-16.9-7.8-27.6-12zm43.5 20.7l-84.5 152.8 37.8-6.4 37.6-68.1-1-24 17.8-6.3 17.1-30.9c-9.2-6.9-17.1-12.4-24.8-17.1zm-193.1 131L21.17 402.1v15.6l98.63-13.5 23 48.4-16.2 7.8-17.4-36.6-88.03 12V496H391.4l-5.9-10.8-74-29.3-55.4 21.7-6.6-16.8 62-24.3 60.4 23.9-.8-1.4-82-82.9-85.5 14.5 24.4 20.9-11.8 13.6-39.9-34.2-54.4-45z" fill="#edcf92" /></g><g transform="translate(128 0) scale(.25)"><path d="M494.25 21.125l-164.53 1.25c-15.463 27.984-33.913 52.67-54.163 75.8 6.012 1.497 12.073 2.995 18.027 4.497l13.69 3.453-8.528 11.254c-50.415 66.503-44.632 142.087-27.36 213.694l-18.17 4.383c-16.838-69.817-23.528-148.192 22.64-217.94-88.07-21.897-183.62-43.434-253.374-89.38-1.77 4.89-1.01 10.187 2.262 17.23 2.427 5.222 6.516 11.043 12.14 17.117 53.162 37.938 130.458 65.946 189.778 75.168l-2.87 18.467c-61.85-9.616-139.642-37.397-196.036-77.227.61 5.953 2.61 12.393 6.387 19.36 6.918 12.758 19.275 26.49 35.7 38.907.84.635 1.697 1.265 2.557 1.893 42.555 22.677 93.696 38.914 140.737 42.164l-1.287 18.644c-61.147-4.222-126.33-28.22-175.672-60.745 1.03 4.922 3.253 10.397 6.885 16.38 7.367 12.14 20.078 25.484 36.23 37.675 39.264 17.838 81.604 32.938 128.62 36.473l-1.4 18.636C150.41 244.06 101.38 224.536 57.41 203.57c3.7 19.623 17.285 34.4 38.926 46.805 26.818 15.373 65.26 25.424 105.822 31.328l7.457 1.086.52 7.517c1.074 15.51 4.568 22.832 9.742 31.672l-16.13 9.438c-4.93-8.426-9.286-18.45-11.292-32.436-32.304-5.087-63.402-12.616-89.365-24.265-6.44 7.75-12.784 15.74-18.994 24.033 16.515 23.758 30.6 43.036 52.78 65.78l27.095-9.467 9.343-3.25 2.718 9.53c15.066 53.052 59.564 93.564 113.595 113.813 48.005 17.99 103.003 19.633 150.063.594-68.673-37.578-114.617-123.708-135.782-199.875l-1.125-4.156 2.376-3.564C348.53 203.283 425.85 148.88 494.25 123.97V21.124z" fill="#bce0dc" /></g><g transform="translate(256 0) scale(.25)"><path d="M263.375 19.375c-11.768 0-22.676 6.137-31.156 17.22-7.267 9.494-12.397 22.54-13.72 37.25 11.14-4.926 22.473-7.91 33.813-9V83.25c-10.965 1.377-22.008 5.008-33.157 11.03 1.968 12.487 6.703 23.502 13.063 31.814 8.48 11.082 19.387 17.22 31.155 17.22s22.707-6.138 31.188-17.22c6.167-8.06 10.783-18.667 12.843-30.688-12.07-6.832-24.194-10.997-36.406-12.344V64.75c12.676 1.087 25.22 4.516 37.344 10.188-1.155-15.158-6.336-28.614-13.78-38.344-8.482-11.082-19.42-17.22-31.19-17.22zm-46.594 117.25c-10.442 4.8-18.39 11.182-22.593 18.47l-.375-.095-41.625 64.438-50.656-21.97c-29.375-16.118-61.574 24-30.624 41.688l94.47 44.063 38.03-50.064c18.7 33.703 16.77 67.43-10.97 101.156-8.344-.642-16.37-.958-23.967-.906-40.312.278-68.942 10.254-73.907 28.78l.03.002c-4.44 16.58 10.992 36.67 39.126 55.28 55.675 29.297 95.38 38.468 156.968 42.344h1.562l.438.125c.424.026.823.07 1.25.094l-.032.314 92.063 28.72-22.19-53.72L183.595 375.5l5.875-17.72 71.81 23.845 71.845-23.844L339 375.5l-48.094 15.97 94.438 31.374c33.494-20.046 52.528-42.468 47.656-60.656-5.95-22.21-45.925-32.107-99.25-27.782-26.392-33.215-26.196-66.41-9.53-99.625L361 283.22l94.47-44.064c30.95-17.687-1.25-57.806-30.626-41.687l-50.688 21.968L332.562 155h-.062c-4.217-7.246-12.135-13.596-22.53-18.375-.2.27-.392.547-.595.813-11.268 14.725-27.633 24.562-46 24.562s-34.732-9.837-46-24.563c-.203-.265-.394-.543-.594-.812zm-63.686 311l-16.72 40.5 69.876-21.78c-17.624-4.574-34.93-10.634-53.156-18.72z" fill="#c0dca1" /></g><g transform="translate(384 0) scale(.25)"><path d="M94.055 21.9L18.998 96.96l42.727 23.6-26.98 26.952L142.35 212.39c-40.443 70.148-30.72 161.07 29.2 220.958 71.605 71.606 187.737 71.587 259.356 0 71.62-71.587 71.642-187.654.037-259.22-59.915-59.878-150.896-69.57-221.084-29.177L144.95 37.415l-8.44 8.432-18.588 18.57L94.055 21.9zm47.224 45.598l62.337 103.275 8.098-5.248c44.21-28.663 99.014-34.044 147.166-16.078-1.16-.026-2.328-.04-3.503-.04-38.988 0-70.594 14.807-70.594 33.073 0 18.27 31.606 33.075 70.594 33.075 31.53 0 58.225-9.684 67.287-23.05 15.942 17.34 27.492 37.224 34.65 58.253-7.76-3.387-18.28-6.706-30.902-9.563-31.383-7.1-75.547-11.615-124.305-11.615-48.757 0-92.92 4.514-124.304 11.615-13.71 3.102-24.997 6.75-32.893 10.438 4.34-12.997 10.343-25.568 18.018-37.383l5.263-8.104-103.33-62.3 13.894-13.88 46.937 25.923 27.914-27.915-26.18-46.635 13.855-13.842zm-1.087 201.287c.482.28.982.56 1.506.84 7.89 4.22 20.41 8.487 36.103 12.037 31.383 7.1 75.547 11.615 124.304 11.615 48.758 0 92.922-4.514 124.305-11.615 15.687-3.55 28.203-7.813 36.094-12.033 1.236 5.837 2.153 11.727 2.746 17.643-9.432 4.277-21.204 7.893-35.074 11.032-33.205 7.513-78.27 12.037-128.07 12.037-49.802 0-94.866-4.524-128.07-12.037-14.67-3.32-27-7.17-36.69-11.776.625-5.952 1.57-11.876 2.845-17.745z" fill="#edbaa6" /></g><g transform="translate(0 128) scale(.25)"><path d="M105.7 41.16l-47.03 1.31 29.3 36.85L116 69.13zm300.6 0L396 69.14l28 10.2 29.3-36.86zm-278.4 8.18L139 79.87l-30.5 11.14L370.7 213.1l19.4-41.6zm256.2 0l-106.7 49.7 54.4 25.36 71.7-33.38L373 79.88zM180.2 144.3l-58.3 27.2 19.4 41.6 93.3-43.4zm241.1 2.8l-49.2 105.5 13 14.9 55.9-120zm-330.63.1l-19.6.4 55.83 119.8 12.9-14.8zm349.43 44.7l-30.6 65.6-34 84.7-55.8 33.3c-3.1 7.3-6.8 14-11.2 20C295.7 413.2 277 425 256 425s-39.7-11.8-52.5-29.5c-4.4-6.1-8.2-12.8-11.3-20.2l-55.1-33.2-27.9-70-37.13-79.7-29.5 19.4 45.5 151.8 81.23 97.1V487h174v-26.2l80.6-97.1 45.6-151.9zM256 249c-14.3 0-27.7 7.9-38 22.1-10.3 14.1-17 34.4-17 56.9s6.7 42.8 17 56.9c10.3 14.2 23.7 22.1 38 22.1s27.7-7.9 38-22.1c10.3-14.1 17-34.4 17-56.9s-6.7-42.8-17-56.9c-10.3-14.2-23.7-22.1-38-22.1z" fill="#ecd898" /></g><g transform="translate(128 128)"><g fill="#8baea5" stroke="#203d39" stroke-width="3" stroke-linejoin="round">
<path d="M35 32H18V26H11V17H17V12H30V17H39V23H49V32Z" />
<path d="M93 32H110V26H117V17H111V12H98V17H89V23H79V32Z" />
</g>
<path d="M38 10H90V108L81 118L72 111L63 118L54 111L38 116Z" fill="#d9b568" stroke="#243c35" stroke-width="5" stroke-linejoin="round" />
<path d="M43 17H85V102L78 110L69 104L61 110L53 104L43 109Z" fill="#ead39a" />
<path d="M48 23H80M48 29H80" fill="none" stroke="#a34935" stroke-width="4" />
<path d="M19.594 18.125V104.5l210.094 181.78-84.97 178.22 230.938-92.188-39.875 117.032 94.47-35.813 67.594 44.533-34.594-106.344-59.75 27.5 76.75-168.25-198.03 99.093 76.5-122.75L238.186 18.125H121.813L312.406 244.72 218.47 393.75l58.28-142.813L43.72 18.125H19.593z" transform="translate(44 35) scale(.078 .127)" fill="#a34935" />
<path d="M45 15V99M83 15V97" fill="none" stroke="#b58b4c" stroke-width="2" />
</g><g transform="translate(256 128) scale(.25)"><path d="M316.28 19.063L211.19 47.25l36.625 67.78-61.25 16.44L184 54.53 80.437 82.313 52.47 186.72l77 2.186L113 250.344l-67.875-36.22L17.22 318.19l75.843 75.843 40.593-65.56 45.25 45.25-65.562 40.624 76.53 76.53 103.782-27.812-36.5-68.03 61.53-16.47 2.377 77.157 104.687-28.064 27.97-104.437-77.158-2.376L393 259.47l68.03 36.5 27.908-104.22-77-77.03-40.47 65.718-44.624-44.657 65.406-40.75-75.97-75.968zM253.19 125l11.53 21.344-22.874 69.72-54.094-49.095-.813-24.19 66.25-17.78zm64.062 16.75l48.28 48.313-13 21.125-71.81 15.062 15.467-71.375 21.063-13.125zm-176.438 47.47l23.75.686 48.938 54.656-69.563 22.282L123 255.656l17.813-66.437zm221.094 53.56l21.125 11.345-17.78 66.375-23.97-.75-48.5-53.938 69.126-23.03zm-139.25 41.5l-14.625 71.376-19.53 12.094-48.875-48.906 12.094-19.5 70.936-15.063zm40.438 11.064l54.5 48.344.72 23.53-66.533 17.844-11.124-20.75 22.438-68.968z" fill="#b1deec" /></g><g transform="translate(384 128) scale(.25)"><path d="M26.81 17.81c10.67 36.57 30.31 58.68 55.5 75.35 26.29 17.44 58.89 28.24 92.29 40.54 33.3 12.2 67.5 25.8 96.1 50.1 24.8 21 45 50.1 56.5 91.7 10.1-7.8 19.9-15.9 29.7-24.1-8.3-37.9-24.5-64.1-45.5-84.1-23.6-22.6-53.6-37.2-85.3-49.8-31.7-12.6-65-23.03-94.6-38.03-28-14.23-53.03-32.96-68.81-61.66zm57.78 0C98.03 37.41 117.1 51.19 140 62.78c27.6 14.01 60.4 24.43 92.9 37.32 32.6 12.9 65 28.4 91.4 53.6 21.6 20.6 38.8 47.7 48.5 84 10.5-9.2 20.8-18.4 31-27.6-4.3-31.9-16-55.5-32.3-74.3-19-21.8-44.7-37.13-73.3-49.46-56.8-24.5-124.1-35.88-167.4-68.53zm82.51 0c38.1 18.53 90.6 30.71 138.5 51.38 30 12.93 58.4 29.52 80 54.31 18.8 21.6 32.2 49.4 36.9 85.1 11.4-.1 22.9-1.5 34.3-4.5 6.1-51.1-23.9-93.1-67.2-125.35C345 45.62 286.7 24.27 245.4 17.81zm148.5 0c29 11.09 58.9 26.47 85.1 45.94 47.9 35.62 83.9 86.45 73.8 148.25l-.6-.1c-3.8 20.7-11.7 36.8-22.9 50.6-16 19.7-39.1 34.5-66.9 48.3-55.5 27.5-128.8 50.1-192.8 103.4-12 12.2-24 24.6-34.2 35-1.2-11.3-2.4-22.7-3.6-34l-11.4 4.4c-33.6 13.1-62.29 31.7-89.75 50.9-5.29-2-8.91-4.8-11-8.2-2.2-3.5-3.12-8.2-1.97-14.7l78.92-48.1c15.7-8.3 13.8-40.6 9.2-52.7l22.5 9.6c-.2-16.1-3.9-26.7-9.4-34.4-7.1-10-18.3-16.1-33.1-21.5-24.53-8.9-57.97-14.7-87.66-36.1v30.9c20.08 21.4 47.71 29.1 67.72 34.7 8.46 2.2 18.14 14.2 22.04 22.5 5.2 11.4 4.5 22.9-2.5 31.9l-80.98 49.4c-2.98 1.4-3.33 2.5-4.15 5.5-3.28 12.2-2.11 23.9 3.5 32.9 5.61 9 15.05 14.8 25.9 17.7l4.22 1.2c27.61-18.5 56.11-37.7 81.91-49.3l3.1 29.2 2 19.8 13.9-14.3 47.1-48.2c60.5-50.2 131.3-72.2 188.8-100.8 28.8-14.3 54.5-30.3 73.1-53.2 17.8-21.8 28.5-49.9 29.5-86.3.2-4.7.1-10 .1-14.9-.6-69-72.7-132.82-133-155.29zM19.84 51.03v52.77c10.49 24.4 27.77 38.9 49.75 50.2 23.38 12.1 51.91 19.7 80.61 29.4 28.7 9.7 57.7 21.6 81.3 43.3 20.9 19.3 37 46.3 44.6 84.6 11.9-7.3 23.5-15.2 34.9-23.6-10.1-42.4-28.8-69.7-52.4-89.7-25.6-21.7-57.5-34.7-90.4-46.8-33-12.1-67-23.2-96.2-42.5-20.95-13.81-39.27-32.22-52.16-57.67zm0 87.87v38.8l.22-.2c24.58 35 70.31 41.2 114.94 56.5 22.3 7.6 44.3 17.8 61.3 36.3 14.6 15.9 25.2 37.6 29.6 67.4 11.2-4.9 22.2-10.3 33-16.3-6.3-38.7-20.9-63.2-40.1-80.9-20.4-18.9-46.7-30-74.5-39.4-27.9-9.4-57.29-17.1-83.24-30.4-15.4-8-29.67-18.2-41.22-31.8zm0 66.4v35c27.88 25.8 63.2 31.5 94.06 42.6 16.2 5.9 31.5 13.7 41.9 28.2 8 11.1 12.5 25.7 12.9 44.5 13.4-2.6 26.5-6.3 39.3-10.9-3.5-29.2-12.9-48.1-25.4-61.7-14-15.2-32.6-24.1-53.6-31.3-35.75-12.2-78.62-18.6-109.16-46.4z" fill="#a6dacf" /></g><g transform="translate(0 256) scale(.25)"><path d="M214.4 76.46c0 16.75 5.8 31.54 14.3 41.84l10.2 12.2-15.6 2.9c-11.1 2.1-19.2 7.9-26.1 17.4-6.9 9.5-12.2 22.8-15.9 38-6.7 27.7-8.2 61.5-8.5 91.2h36.8l10 135.2c25.6 5.8 53 5.6 77.6 0l9-135.2h34.9c0-30.1-.4-64.3-6.5-92.2-3.3-15.4-8.4-28.6-15.4-38-7-9.4-15.5-15.2-27.9-17.1l-15.9-2.5 10-12.6c8.2-10.1 13.7-24.8 13.7-41.14 0-32.41-20.3-56.4-42.3-56.4-24.9-.32-41.9 33.01-42.4 56.4zm-28.2-52.41C109.1 77.81 19.73 258 19.73 425.3v.9c0 6.6 4.41 14.2 15.57 22.4 11.15 8.3 28.37 16.3 50.01 23.1 43.29 13.5 104.09 22.1 171.39 22.1 67.2 0 128-8.6 171.3-22.1 21.7-6.8 38.9-14.8 50-23.1 11.2-8.2 15.6-15.8 15.6-22.4 0-1.2-.1-2.4-.4-3.7-1-166.4-89.8-344.98-166.4-398.45C399.4 161 408.3 318.8 399.7 443.2c-33.4 13.4-85.1 22-143 22-58.2 0-110.1-8.7-143.5-22.2-13.49-173 12.9-342.3 73-418.95z" fill="#e1c984" /></g><g transform="translate(128 256) scale(.25)"><path d="M263.844 40.344C234.1 213.202 145.594 248.03 145.594 369.22c0 60.804 60.106 105.5 118.25 105.5 59.45 0 115.937-41.803 115.937-99.533 0-116.332-85.2-162.312-115.936-334.843zm-58.28 217.094c-27.963 75.53-5.105 154.567 54.25 179.375 15.185 6.348 31.724 7.714 47.905 6.28-116.134 49.787-185.836-79.816-102.158-185.656z" fill="#adcfa7" /></g><g transform="translate(256 256) scale(.25)"><path d="M254.963 40.213c-37.634 31.356-62.038 67.976-77.916 109.394 8.544 12.5 16.607 25.44 24.228 38.594 15.642-5.553 32.468-8.587 49.995-8.587 17.886 0 35.046 3.156 50.96 8.93 9.07-14.52 18.652-28.856 28.89-42.66-15.736-38.504-39.406-74.025-76.157-105.67zM434.593 72.5c-46.74 28.5-83.334 74.49-114.616 123.826 21.934 11.372 40.696 28.023 54.636 48.244 23.212-22.514 48.206-44.643 75.58-66.82-.882-31.955-5.798-67.033-15.6-105.25zm-353.03 1.094c-9.435 37.96-14.433 72.695-15.74 104.27 23.62 20.078 45.453 40.406 65.78 61.603 13.77-18.29 31.614-33.345 52.194-43.774-28.336-48.245-62.472-92.77-102.234-122.1zm-54.59 96.7C9.708 278.34 31.295 358.165 72.27 411.517c22.427 29.2 50.77 50.62 82.128 64.363-20.892-35.934-25.973-76.777-16.613-116.112 4.668-19.617 12.848-38.864 24.274-57.09-38.14-48.11-82.083-90.01-135.087-132.383zm462.588.464c-59.87 45.918-108.408 90.682-151.36 138.615 9.625 17.744 16.24 36.16 19.722 54.732 7.08 37.78 1.012 76.134-18.31 109.926 32.2-14.254 62.005-35.988 86.51-65.214 44.98-53.64 72.394-132.675 63.44-238.058zM251.27 198.3c-44.09 0-83.025 21.667-106.764 54.954 9.898 10.856 19.428 21.973 28.64 33.42 18.55-24.415 43.224-46.48 73.372-64.422l5.072-3.02 4.906 3.286c30.383 20.345 54.374 44.323 71.65 70.185 10.638-11.774 21.61-23.376 33.012-34.85-23.354-35.875-63.803-59.552-109.888-59.552zm-.268 43.182c-51.58 32.272-84.19 77.032-95.035 122.612-10.94 45.97-.302 92.658 35.986 130.607h108.904c34.806-36.38 47.222-81.652 38.696-127.15-8.466-45.177-37.988-90.634-88.55-126.068z" fill="#bbdabb" /></g><g transform="translate(384 256) scale(.25)"><path d="M256 56.998c-60.466 0-115.104 14.12-153.928 36.305C63.248 115.488 40.998 144.909 40.998 176c0 31.09 22.25 60.512 61.074 82.697 38.824 22.185 93.462 36.305 153.928 36.305 60.466 0 115.104-14.12 153.928-36.305 38.824-22.185 61.074-51.606 61.074-82.697 0-31.09-22.25-60.512-61.074-82.697C371.104 71.118 316.466 56.998 256 56.998zm0 33.273c39.141 0 74.677 8.783 101.137 23.624 26.46 14.84 44.666 36.581 44.666 62.105 0 25.524-18.206 47.265-44.666 62.105C330.677 252.946 295.14 261.73 256 261.73s-74.677-8.783-101.137-23.624c-26.46-14.84-44.666-36.581-44.666-62.105 0-25.524 18.206-47.265 44.666-62.105C181.323 99.054 216.86 90.27 256 90.27zm0 17.999c-36.413 0-69.279 8.392-92.332 21.322-23.053 12.93-35.473 29.555-35.473 46.408s12.42 33.478 35.473 46.408c23.053 12.93 55.919 21.322 92.332 21.322s69.279-8.392 92.332-21.322c23.053-12.93 35.473-29.555 35.473-46.408s-12.42-33.478-35.473-46.408c-23.053-12.93-55.919-21.322-92.332-21.322zm-24.893 203.96L217.21 487.697c1.473.733 4.15 1.72 7.744 2.518 7.967 1.77 19.547 2.787 31.047 2.787s23.08-1.017 31.047-2.787c3.594-.799 6.271-1.785 7.744-2.518L280.893 312.23c-8.18.503-16.483.768-24.893.768s-16.712-.265-24.893-.768zM85.98 375.69c-3.933-.008-7.93.17-11.96.455 4.054 18.088 20.652 40.868 45.602 60.828 22.32 17.855 50.7 33.446 80.135 43.16l4.305-54.36c-27.353-23.927-66.527-48.286-114.172-50.011-1.296-.047-2.6-.07-3.91-.073zm340.042 0c-1.31.002-2.614.025-3.91.072-47.645 1.725-86.82 26.084-114.172 50.011l4.305 54.36c29.434-9.714 57.816-25.305 80.135-43.16 24.95-19.96 41.548-42.74 45.601-60.828-4.03-.284-8.026-.463-11.959-.456z" fill="#edbc90" /></g></svg>